<svg id="svg" xmlns="http://www.w3.org/2000/svg" xmlns:xlink="http://www.w3.org/1999/xlink" width="500" height="500" viewBox="0, 0, 500,500"><g id="svgg"><path id="path0" d="M355.417 120.044 C 354.042 120.433,350.866 121.332,348.360 122.042 C 345.250 122.924,340.225 123.330,332.527 123.322 C 313.442 123.303,276.910 125.287,283.333 125.993 C 288.511 126.563,309.253 126.245,322.500 125.392 C 332.950 124.720,327.210 126.374,315.417 127.433 C 302.848 128.562,294.330 129.895,293.755 130.825 C 293.534 131.183,302.141 131.399,312.883 131.305 L 332.414 131.133 337.469 128.483 C 340.250 127.026,343.175 125.842,343.971 125.852 C 344.766 125.862,343.796 126.606,341.814 127.505 C 339.833 128.404,337.192 129.866,335.944 130.755 C 333.794 132.286,331.613 132.388,294.129 132.716 C 260.822 133.008,251.894 133.351,237.538 134.893 C 218.520 136.935,215.805 136.885,222.500 134.613 C 225.021 133.758,226.644 132.911,226.108 132.732 C 223.334 131.803,206.237 140.817,184.500 154.666 C 176.275 159.907,169.289 163.736,166.445 164.562 C 163.894 165.304,161.333 166.481,160.755 167.177 C 159.294 168.939,155.431 170.833,153.301 170.833 C 151.694 170.833,151.574 171.149,152.066 174.066 L 152.612 177.298 146.514 179.795 C 139.730 182.574,135.019 183.730,115.079 187.511 C 98.820 190.594,79.244 195.422,78.014 196.653 C 77.035 197.632,79.790 197.257,87.500 195.361 C 90.021 194.742,101.083 192.370,112.083 190.091 C 123.083 187.813,135.458 185.197,139.583 184.279 C 146.527 182.733,162.385 180.533,166.250 180.579 C 225.626 181.285,251.569 181.787,263.333 182.459 C 271.354 182.917,282.498 183.301,288.096 183.313 L 298.276 183.333 305.211 176.458 C 310.066 171.645,315.192 165.085,322.303 154.583 C 332.997 138.789,338.339 132.110,342.748 129.019 C 344.961 127.468,345.203 127.418,344.167 128.730 C 343.012 130.191,343.044 130.259,344.583 129.612 C 359.815 123.210,387.519 122.483,404.855 128.031 C 406.997 128.717,410.813 129.469,413.333 129.703 C 417.974 130.133,430.833 134.662,430.833 135.866 C 430.833 136.226,432.427 136.783,434.375 137.104 C 441.637 138.301,447.742 145.680,461.206 169.532 C 464.668 175.665,467.500 181.065,467.500 181.532 C 467.500 181.999,468.126 183.007,468.890 183.771 C 470.767 185.648,471.624 201.793,469.954 203.805 C 469.208 204.704,469.140 205.307,469.741 205.689 C 470.226 205.997,470.904 207.563,471.246 209.167 C 471.588 210.771,472.394 213.115,473.038 214.375 C 473.683 215.635,473.966 216.667,473.669 216.667 C 473.372 216.667,473.581 217.211,474.134 217.877 C 474.867 218.760,475.034 222.984,474.751 233.502 C 474.306 250.059,475.441 248.120,476.312 230.833 C 476.821 220.729,476.698 219.001,475.105 213.867 C 473.827 209.748,473.179 204.800,472.786 196.163 C 472.487 189.570,471.831 183.464,471.329 182.594 C 457.616 158.817,445.902 141.408,441.205 137.826 C 437.133 134.720,418.284 128.288,410.833 127.462 C 407.396 127.081,400.833 126.033,396.250 125.134 C 391.667 124.235,384.167 123.040,379.583 122.478 C 375.000 121.917,369.985 120.942,368.440 120.312 C 365.365 119.059,359.341 118.935,355.417 120.044 M260.417 125.575 C 249.893 127.804,251.013 128.965,262.231 127.457 C 270.788 126.307,272.239 125.874,270.735 124.922 C 269.233 123.970,267.469 124.082,260.417 125.575 M363.750 130.032 C 361.917 130.402,358.729 130.980,356.667 131.316 C 352.410 132.011,346.667 135.279,346.667 137.007 C 346.667 137.642,345.354 139.313,343.750 140.722 C 342.146 142.130,340.833 143.640,340.833 144.077 C 340.833 144.514,339.958 145.932,338.888 147.228 C 337.818 148.523,336.370 150.708,335.670 152.083 C 334.970 153.458,332.627 157.865,330.464 161.875 C 324.928 172.137,326.232 170.939,332.906 159.632 C 342.697 143.042,349.283 135.540,355.511 133.880 C 362.320 132.066,364.898 132.158,359.503 134.022 C 349.541 137.466,340.616 148.299,324.792 176.157 C 320.403 183.882,325.473 190.163,334.284 187.918 C 341.900 185.978,372.385 182.380,383.333 182.129 C 395.227 181.857,397.306 181.506,358.547 186.303 C 333.712 189.376,332.191 189.659,333.049 191.047 C 333.410 191.631,332.387 191.759,329.963 191.434 C 327.618 191.120,326.763 191.217,327.543 191.711 C 328.207 192.131,329.375 192.480,330.139 192.487 C 330.903 192.494,331.659 192.894,331.820 193.376 C 332.016 193.965,336.071 193.699,344.181 192.565 C 350.819 191.637,372.188 188.985,391.667 186.671 C 444.652 180.377,452.738 179.048,455.624 176.162 C 456.835 174.951,456.453 174.877,451.183 175.297 C 445.999 175.710,445.836 175.680,449.572 175.002 C 451.857 174.588,454.578 174.035,455.619 173.774 L 457.511 173.299 455.334 168.941 C 447.024 152.306,439.670 143.457,432.350 141.283 C 423.368 138.615,396.392 134.831,378.103 133.672 C 365.800 132.892,366.021 131.691,378.492 131.554 C 388.458 131.444,388.572 131.422,382.500 130.796 C 369.813 129.488,367.011 129.373,363.750 130.032 M339.920 133.095 C 338.282 134.830,335.509 138.125,333.756 140.417 C 331.390 143.511,332.213 142.868,336.952 137.918 C 340.462 134.252,343.236 130.958,343.116 130.597 C 342.995 130.236,341.557 131.360,339.920 133.095 M401.667 133.709 C 416.640 136.046,423.584 136.432,415.000 134.451 C 412.021 133.763,407.896 133.113,405.833 133.007 C 403.771 132.900,399.083 132.561,395.417 132.253 C 391.124 131.893,393.349 132.411,401.667 133.709 M266.667 134.660 C 266.667 134.932,265.881 136.150,264.921 137.369 L 263.175 139.583 272.212 140.146 C 289.791 141.242,289.318 140.750,287.073 155.602 C 285.450 166.339,284.871 167.335,283.447 161.833 C 281.504 154.324,280.951 154.029,270.080 154.689 L 260.623 155.263 259.130 158.673 C 258.309 160.549,257.389 163.958,257.085 166.250 C 255.796 175.961,253.286 179.167,246.971 179.167 C 244.970 179.167,243.333 178.932,243.333 178.646 C 243.333 177.578,249.324 158.670,250.297 156.667 C 251.430 154.332,255.063 153.538,265.208 153.406 C 270.774 153.334,270.833 153.309,270.824 151.042 C 270.780 140.042,265.444 138.459,256.751 146.867 C 251.430 152.012,251.565 151.528,257.758 143.255 C 260.682 139.348,260.630 139.181,256.458 139.084 C 247.678 138.878,247.934 137.801,257.500 134.703 C 259.319 134.114,266.667 134.080,266.667 134.660 M385.417 135.440 C 389.083 135.696,396.461 136.507,401.811 137.242 L 411.539 138.578 414.841 145.747 C 418.478 153.644,422.017 163.700,422.863 168.542 L 423.409 171.667 416.412 171.667 C 405.723 171.667,404.692 171.091,403.561 164.485 C 402.381 157.597,400.875 155.833,396.175 155.833 C 394.213 155.833,391.679 155.480,390.542 155.048 C 388.467 154.259,388.086 153.542,387.079 148.542 L 386.534 145.833 392.702 145.833 C 396.094 145.833,400.530 145.302,402.560 144.653 C 404.589 144.004,407.281 143.246,408.542 142.970 C 417.053 141.106,406.887 138.647,383.482 136.910 L 378.214 136.519 379.633 139.264 C 380.414 140.773,381.242 144.369,381.474 147.254 C 381.705 150.139,382.201 152.500,382.575 152.500 C 383.576 152.500,384.990 158.218,384.995 162.292 C 384.998 164.240,385.357 165.833,385.794 165.833 C 386.727 165.833,388.333 171.168,388.303 174.167 C 388.284 176.157,388.238 176.175,387.293 174.583 C 386.360 173.013,386.276 173.060,385.826 175.417 C 385.241 178.478,383.046 170.966,378.641 150.833 C 377.087 143.729,375.612 137.024,375.365 135.933 C 374.969 134.195,375.151 134.013,376.832 134.462 C 377.887 134.744,381.750 135.184,385.417 135.440 M375.848 147.274 C 378.397 162.730,377.517 169.738,372.839 171.250 C 371.421 171.708,370.234 172.416,370.202 172.823 C 369.981 175.578,364.774 174.560,361.560 171.133 L 359.583 169.025 361.615 167.377 C 362.733 166.471,364.707 165.517,366.003 165.258 C 369.254 164.607,367.643 162.770,362.738 161.535 C 359.863 160.811,358.604 159.908,357.064 157.469 C 355.975 155.744,353.472 153.253,351.501 151.933 C 343.159 146.345,346.307 144.203,362.917 144.163 C 373.526 144.138,374.604 143.760,373.366 140.502 C 372.890 139.249,372.511 137.405,372.525 136.404 C 372.584 132.214,374.278 137.758,375.848 147.274 M223.103 138.744 C 220.914 139.346,218.476 140.119,217.686 140.461 C 216.896 140.804,215.592 141.213,214.787 141.371 C 207.869 142.728,169.832 169.983,168.134 174.801 C 167.656 176.155,171.647 175.837,172.835 174.426 C 190.510 153.437,218.431 138.389,239.784 138.344 L 244.985 138.333 242.598 142.292 C 241.285 144.469,239.952 147.375,239.635 148.750 C 238.551 153.462,229.826 176.250,228.871 176.862 C 228.346 177.199,225.522 177.480,222.596 177.487 C 219.670 177.494,214.946 177.929,212.099 178.454 C 208.261 179.161,201.842 179.177,187.289 178.517 C 168.983 177.686,167.243 177.733,161.536 179.215 C 154.298 181.095,155.000 180.998,155.000 180.121 C 155.000 178.671,197.594 147.930,207.301 142.375 C 212.939 139.148,218.152 137.606,223.333 137.631 L 227.083 137.649 223.103 138.744 M421.667 140.114 L 426.250 141.207 422.917 141.805 C 420.554 142.229,421.124 142.297,424.877 142.039 C 429.163 141.744,430.600 141.980,432.428 143.282 C 433.669 144.166,435.705 145.145,436.953 145.458 C 439.505 146.099,441.245 148.420,449.829 162.633 C 455.367 171.803,455.592 172.369,453.888 172.827 C 450.823 173.649,449.690 173.461,450.662 172.292 C 451.349 171.466,449.555 171.308,442.011 171.530 L 432.493 171.810 425.671 157.839 C 421.919 150.154,418.720 144.256,418.562 144.731 C 418.331 145.424,424.530 159.775,429.428 169.885 C 430.578 172.258,433.094 173.315,437.763 173.386 C 440.368 173.426,440.828 173.607,439.583 174.103 C 438.229 174.643,433.903 174.716,430.635 174.254 C 429.824 174.139,425.457 165.377,419.793 152.500 C 413.839 138.964,413.558 138.046,415.543 138.595 C 416.390 138.829,419.146 139.513,421.667 140.114 M384.268 140.625 C 384.324 141.427,384.433 143.396,384.511 145.000 C 384.862 152.274,385.112 153.371,386.891 155.439 C 388.509 157.320,389.682 157.718,395.016 158.194 L 401.250 158.750 401.667 165.143 C 401.984 170.014,402.528 172.136,403.950 174.057 C 404.977 175.444,405.540 176.741,405.200 176.941 C 403.571 177.900,399.448 178.242,398.333 177.511 C 397.361 176.874,397.615 176.689,399.477 176.679 C 401.510 176.669,401.714 176.478,400.833 175.417 C 400.263 174.729,398.967 174.167,397.954 174.167 C 395.521 174.167,394.751 173.301,396.174 172.166 C 396.805 171.662,397.494 169.281,397.705 166.875 C 398.118 162.160,397.148 160.910,396.250 165.000 C 395.948 166.375,395.356 167.500,394.934 167.500 C 393.974 167.500,393.978 167.273,394.979 164.638 C 395.507 163.249,395.507 162.500,394.979 162.500 C 394.532 162.500,394.167 162.938,394.167 163.472 C 394.167 164.007,393.970 164.248,393.730 164.008 C 392.737 163.015,394.463 160.907,396.529 160.590 C 398.053 160.357,397.669 160.211,395.306 160.125 C 391.572 159.990,390.475 161.365,391.737 164.597 C 392.092 165.506,392.385 167.563,392.387 169.167 C 392.390 171.757,392.254 171.575,391.170 167.545 C 389.492 161.302,389.204 161.387,389.519 168.026 C 389.668 171.174,389.624 172.257,389.421 170.433 C 389.218 168.609,388.725 166.722,388.326 166.241 C 387.382 165.104,381.673 143.489,381.669 141.042 C 381.666 138.826,384.116 138.433,384.268 140.625 M306.021 146.681 C 311.895 147.566,315.480 148.670,317.249 150.138 C 318.599 151.258,313.285 158.174,304.621 166.576 C 295.606 175.317,294.163 174.702,294.174 162.125 C 294.187 147.417,294.740 144.886,297.826 145.403 C 299.251 145.642,302.938 146.217,306.021 146.681 M445.195 159.195 C 447.503 163.334,449.557 166.554,449.761 166.351 C 450.186 165.925,442.706 152.726,441.680 152.092 C 441.305 151.860,442.887 155.057,445.195 159.195 M353.333 159.088 C 352.646 159.476,350.301 160.050,348.123 160.364 C 344.844 160.838,343.709 161.501,341.525 164.218 C 340.075 166.023,338.737 167.348,338.551 167.162 C 337.779 166.390,342.274 160.767,344.583 159.617 C 347.211 158.308,355.620 157.800,353.333 159.088 M243.263 164.171 C 240.112 168.663,232.832 177.232,234.771 174.167 C 236.587 171.296,245.943 159.167,246.341 159.167 C 246.579 159.167,245.193 161.419,243.263 164.171 M382.489 175.625 C 382.495 176.656,382.165 177.500,381.756 177.500 C 380.779 177.500,380.000 175.390,380.000 172.746 C 380.000 170.876,379.840 170.762,378.630 171.766 C 377.425 172.766,377.317 172.703,377.734 171.243 C 377.995 170.330,378.485 168.271,378.823 166.667 L 379.436 163.750 380.957 168.750 C 381.793 171.500,382.482 174.594,382.489 175.625 M163.541 170.773 C 160.011 173.966,154.389 177.167,153.634 176.412 C 153.124 175.902,165.034 167.489,166.203 167.534 C 166.687 167.553,165.489 169.010,163.541 170.773 M350.000 168.696 C 350.000 172.301,345.578 175.535,341.908 174.614 C 339.571 174.027,339.277 170.504,341.458 169.233 C 342.870 168.411,350.000 167.962,350.000 168.696 M441.250 176.705 C 438.958 177.062,435.771 177.331,434.167 177.302 C 430.042 177.228,437.359 176.089,442.083 176.070 C 445.236 176.057,445.191 176.091,441.250 176.705 M420.833 178.423 C 424.160 178.551,400.076 181.595,396.250 181.530 C 394.875 181.507,397.172 180.988,401.355 180.378 C 405.537 179.767,410.225 178.896,411.772 178.440 C 413.318 177.985,415.333 177.770,416.250 177.962 C 417.167 178.154,419.229 178.361,420.833 178.423 M429.375 178.088 C 428.344 178.287,426.656 178.287,425.625 178.088 C 424.594 177.889,425.438 177.727,427.500 177.727 C 429.563 177.727,430.406 177.889,429.375 178.088 M368.867 180.394 C 365.541 182.913,340.001 186.168,338.143 184.309 C 337.397 183.564,338.434 183.333,342.542 183.331 C 349.488 183.328,361.662 181.828,366.104 180.428 C 370.612 179.007,370.698 179.006,368.867 180.394 M133.750 190.473 C 111.790 195.625,99.950 198.885,98.750 200.111 C 97.546 201.342,102.691 200.379,115.000 197.070 C 120.729 195.530,131.724 192.751,139.433 190.894 C 152.913 187.647,158.483 185.822,154.583 185.930 C 153.667 185.956,144.292 188.000,133.750 190.473 M273.333 187.146 C 270.518 188.290,270.618 188.313,276.250 187.819 C 279.458 187.537,284.258 187.207,286.915 187.085 C 295.066 186.712,293.282 185.829,284.514 185.897 C 279.433 185.936,275.127 186.417,273.333 187.146 M268.333 189.745 C 267.188 189.938,257.063 191.556,245.833 193.342 C 234.604 195.127,215.479 198.487,203.333 200.810 C 152.481 210.532,145.212 210.996,83.750 208.439 C 63.439 207.595,55.488 207.536,53.333 208.215 C 50.676 209.053,50.898 209.108,55.833 208.834 C 58.813 208.669,73.813 209.057,89.167 209.697 C 145.831 212.059,167.891 211.331,206.667 205.822 C 219.271 204.031,241.958 201.029,257.083 199.151 C 272.208 197.272,285.521 195.505,286.667 195.222 L 288.750 194.709 286.250 194.037 C 283.972 193.425,277.521 194.000,256.667 196.674 C 239.511 198.874,227.759 198.224,242.158 195.871 C 256.304 193.560,275.265 190.012,275.678 189.600 C 276.163 189.115,271.532 189.206,268.333 189.745 M310.833 194.684 C 308.313 195.326,302.313 196.061,297.500 196.317 C 282.316 197.127,255.955 201.429,223.750 208.354 C 218.682 209.444,209.900 210.252,196.667 210.847 C 170.238 212.034,169.675 212.229,192.266 212.375 C 212.951 212.509,222.110 211.615,237.917 207.919 C 254.419 204.060,264.735 202.354,273.333 202.061 C 278.458 201.886,290.176 200.361,301.616 198.381 C 312.360 196.521,321.266 195.000,321.408 195.000 C 321.550 195.000,321.667 194.625,321.667 194.167 C 321.667 193.024,316.362 193.277,310.833 194.684 M289.583 195.000 C 288.949 196.027,296.361 196.027,298.750 195.000 C 299.930 194.493,298.911 194.267,295.258 194.225 C 292.420 194.193,289.867 194.542,289.583 195.000 M226.301 200.098 C 223.578 200.976,219.078 201.846,216.301 202.031 C 213.523 202.215,207.500 203.110,202.917 204.020 C 193.915 205.806,183.487 207.133,184.177 206.403 C 184.602 205.954,204.730 202.212,215.000 200.673 C 217.979 200.227,222.104 199.568,224.167 199.209 C 230.609 198.087,231.447 198.436,226.301 200.098 M419.167 199.603 C 415.729 200.208,396.315 203.539,376.024 207.005 C 355.733 210.472,336.795 213.905,333.941 214.635 C 331.086 215.365,326.780 216.234,324.372 216.567 C 321.965 216.900,319.608 217.559,319.135 218.032 C 317.857 219.310,326.485 218.573,335.417 216.642 C 347.756 213.973,389.691 206.667,392.665 206.667 C 394.184 206.667,396.706 206.300,398.268 205.852 C 399.830 205.404,408.442 203.696,417.406 202.056 C 426.370 200.416,433.870 198.907,434.074 198.704 C 434.821 197.957,425.240 198.535,419.167 199.603 M55.214 202.853 C 49.571 204.950,48.689 205.503,43.892 209.955 C 39.870 213.688,39.611 214.183,37.506 222.167 C 35.583 229.457,31.193 241.074,27.460 248.750 L 25.029 253.750 24.578 273.958 C 24.327 285.206,24.448 294.167,24.851 294.167 C 25.549 294.167,26.979 267.104,26.713 258.947 C 26.616 255.993,27.340 253.303,29.542 248.426 C 31.169 244.822,32.500 241.124,32.500 240.208 C 32.500 239.293,33.396 236.902,34.490 234.897 C 36.756 230.746,37.805 227.534,39.206 220.457 C 40.475 214.046,45.893 208.625,54.250 205.403 C 60.165 203.123,63.873 200.873,61.667 200.903 C 60.979 200.913,58.076 201.790,55.214 202.853 M452.954 207.158 C 449.733 208.337,445.478 211.589,446.205 212.316 C 446.406 212.517,447.678 211.893,449.032 210.929 C 451.227 209.366,457.474 207.392,463.333 206.410 C 464.479 206.218,463.354 206.036,460.833 206.006 C 458.313 205.975,454.767 206.494,452.954 207.158 M81.340 213.240 C 78.399 216.309,79.025 216.629,87.288 216.281 C 97.628 215.846,99.349 213.837,90.208 212.872 C 87.115 212.546,84.373 211.953,84.116 211.554 C 83.859 211.155,82.610 211.914,81.340 213.240 M43.056 216.389 C 42.750 216.694,42.500 218.736,42.500 220.925 C 42.500 223.291,41.864 226.022,40.931 227.661 C 39.382 230.381,38.139 237.712,37.992 244.982 C 37.925 248.313,38.177 248.839,40.344 249.884 C 47.594 253.380,112.299 260.451,131.315 259.826 C 139.884 259.544,140.850 258.716,144.141 248.827 C 147.077 240.005,146.233 240.417,161.391 240.417 C 176.277 240.417,180.128 240.980,182.475 243.499 C 185.464 246.707,213.355 243.736,217.206 239.799 C 220.093 236.847,225.216 223.823,223.629 223.468 C 220.637 222.798,218.629 224.317,215.417 229.678 C 210.998 237.053,200.000 243.758,200.000 239.076 C 200.000 238.509,200.798 238.353,202.066 238.671 L 204.132 239.190 202.066 236.145 C 199.638 232.567,199.430 229.524,201.458 227.236 C 202.871 225.642,202.860 225.621,201.088 226.550 C 198.662 227.822,198.078 228.897,198.129 231.995 L 198.172 234.583 196.860 231.894 C 193.884 225.790,196.768 224.191,213.969 222.412 C 230.896 220.660,225.306 219.594,204.404 220.587 C 194.419 221.062,176.884 221.529,165.437 221.626 C 153.989 221.722,144.386 221.948,144.097 222.126 C 142.111 223.354,63.087 218.991,52.106 217.048 C 44.385 215.682,43.805 215.639,43.056 216.389 M457.952 218.782 C 451.523 220.546,450.490 222.878,442.498 253.690 C 438.412 269.444,437.424 271.667,434.507 271.667 C 433.343 271.667,431.588 272.096,430.607 272.621 C 429.627 273.146,425.808 273.881,422.121 274.256 C 405.483 275.945,327.108 296.872,323.717 300.531 C 320.026 304.514,319.514 303.508,318.468 290.208 C 315.059 246.898,308.379 238.989,280.000 244.664 C 254.097 249.843,251.060 253.177,236.415 292.500 C 223.235 327.892,226.731 324.480,202.254 325.839 C 165.224 327.895,164.568 327.722,152.894 312.831 C 141.170 297.875,139.465 297.053,113.333 293.765 C 80.401 289.621,65.291 287.390,50.543 284.493 C 31.460 280.745,31.743 280.708,29.408 287.274 C 22.672 306.220,24.652 313.124,38.529 319.072 C 40.519 319.925,43.204 322.016,44.513 323.731 C 47.251 327.322,50.121 328.695,58.543 330.446 C 61.865 331.136,67.901 332.843,71.956 334.238 C 78.509 336.493,93.910 340.051,113.750 343.895 C 121.381 345.374,161.747 345.089,179.167 343.434 C 184.438 342.933,195.490 342.153,203.728 341.700 L 218.705 340.878 220.903 342.984 C 222.112 344.142,224.537 347.707,226.290 350.907 C 230.078 357.817,243.096 370.922,248.562 373.328 C 272.328 383.789,290.408 375.248,304.181 347.054 C 307.431 340.401,310.428 335.166,310.842 335.422 C 311.256 335.678,311.380 336.445,311.118 337.127 C 310.763 338.051,311.560 337.885,314.239 336.476 C 317.804 334.601,317.857 334.506,319.991 326.250 C 324.070 310.465,326.397 308.899,357.564 300.959 C 368.300 298.224,381.208 295.172,386.250 294.177 C 394.072 292.632,409.035 289.155,413.393 287.868 C 414.357 287.584,415.721 289.525,418.548 295.199 C 426.201 310.561,431.127 313.170,447.500 310.535 C 461.300 308.314,469.611 293.798,471.295 268.974 C 471.583 264.726,472.387 258.871,473.082 255.964 C 474.005 252.100,474.097 250.430,473.422 249.756 C 472.847 249.180,472.498 244.903,472.495 238.375 C 472.486 218.260,470.350 215.381,457.952 218.782 M53.333 220.391 C 53.333 220.518,52.593 222.296,51.687 224.343 C 50.782 226.389,48.931 232.487,47.575 237.894 C 44.756 249.132,44.304 249.876,41.160 248.444 C 38.374 247.175,38.624 241.516,41.945 230.646 C 43.104 226.853,44.249 222.813,44.490 221.667 C 44.863 219.888,53.333 218.666,53.333 220.391 M61.726 221.667 C 63.178 221.667,63.172 221.874,61.587 226.458 C 60.676 229.094,59.041 234.813,57.953 239.167 C 55.240 250.025,54.432 251.947,52.837 251.335 C 52.118 251.059,50.905 250.828,50.140 250.821 C 46.389 250.786,46.585 245.032,50.779 232.083 C 54.184 221.573,54.805 220.586,57.655 221.156 C 59.059 221.437,60.891 221.667,61.726 221.667 M45.807 224.375 C 42.127 230.349,39.198 243.607,41.019 246.044 C 42.751 248.362,44.027 246.624,45.791 239.542 C 46.699 235.898,48.205 230.702,49.138 227.995 C 51.603 220.837,49.437 218.483,45.807 224.375 M74.103 223.000 C 74.533 223.420,70.353 243.510,68.624 249.331 L 67.378 253.527 63.977 252.983 C 59.707 252.300,59.167 251.958,59.167 249.932 C 59.167 248.388,59.282 248.370,61.202 249.628 C 66.345 252.998,67.084 251.769,71.253 232.917 C 72.064 229.250,72.903 225.781,73.119 225.208 C 73.658 223.779,67.168 223.808,65.980 225.240 C 65.489 225.831,63.783 231.175,62.187 237.115 C 60.591 243.056,59.264 246.979,59.238 245.833 C 59.160 242.343,61.879 231.986,65.116 223.449 C 65.806 221.632,72.364 221.304,74.103 223.000 M55.568 224.000 C 52.629 227.247,47.853 245.045,49.230 247.618 C 50.276 249.573,53.032 249.625,54.046 247.708 C 54.707 246.459,60.833 224.077,60.833 222.912 C 60.833 221.834,56.768 222.674,55.568 224.000 M188.333 223.208 C 188.333 223.953,175.813 224.988,166.708 224.996 C 157.806 225.003,161.993 223.425,171.677 223.124 C 176.484 222.974,182.198 222.772,184.375 222.676 C 186.552 222.579,188.333 222.818,188.333 223.208 M88.276 224.113 C 89.723 225.029,87.995 236.920,84.818 247.917 L 82.892 254.583 79.154 254.544 C 72.476 254.474,72.193 254.153,72.751 247.272 C 74.313 227.998,80.301 219.067,88.276 224.113 M79.242 225.693 C 78.045 227.928,74.476 241.995,73.769 247.257 C 73.129 252.022,73.420 252.297,79.557 252.739 C 81.754 252.897,82.157 252.545,83.167 249.583 C 84.357 246.091,88.550 225.745,88.148 225.408 C 86.561 224.076,79.994 224.287,79.242 225.693 M105.349 224.672 C 109.781 226.373,101.740 256.672,96.858 256.662 C 91.552 256.651,88.333 255.081,88.333 252.503 C 88.333 245.636,93.198 226.132,95.233 224.838 C 96.444 224.069,103.475 223.954,105.349 224.672 M128.826 226.458 C 128.577 227.260,126.475 234.256,124.156 242.004 C 121.837 249.751,119.743 256.408,119.504 256.795 C 118.796 257.941,109.632 257.608,107.946 256.375 C 105.080 254.279,108.486 233.728,112.788 227.163 C 114.632 224.348,129.687 223.686,128.826 226.458 M96.165 226.471 C 93.692 228.119,88.338 252.293,90.186 253.466 C 92.930 255.207,99.176 254.251,100.048 251.957 C 101.332 248.581,105.733 227.179,105.291 226.463 C 104.792 225.656,97.378 225.663,96.165 226.471 M147.849 226.339 C 151.714 227.822,141.226 256.441,136.104 258.389 C 131.689 260.067,125.000 257.723,125.000 254.497 C 125.000 248.458,130.609 230.901,133.558 227.708 C 135.305 225.818,144.255 224.960,147.849 226.339 M284.740 226.745 C 271.240 228.719,254.227 234.699,248.644 239.433 C 244.563 242.894,232.329 264.991,227.904 276.894 C 225.771 282.632,226.921 282.642,229.186 276.905 C 232.003 269.770,239.207 255.833,240.077 255.833 C 240.493 255.833,240.833 255.148,240.833 254.310 C 240.833 250.612,247.237 243.071,248.484 245.300 C 249.823 247.692,250.782 246.770,249.822 244.014 C 246.559 234.655,294.268 222.820,306.400 229.978 C 309.987 232.095,310.933 231.689,307.927 229.323 C 303.896 226.153,295.314 225.199,284.740 226.745 M113.373 228.259 C 112.212 230.428,108.538 245.264,107.865 250.501 L 107.318 254.752 110.534 255.284 C 118.843 256.656,118.073 257.653,123.318 238.750 C 124.717 233.708,126.068 228.927,126.320 228.125 C 127.044 225.823,114.608 225.952,113.373 228.259 M134.222 229.702 C 131.419 233.265,125.536 254.147,126.939 255.550 C 127.267 255.878,129.745 256.306,132.447 256.501 C 138.422 256.934,138.290 257.124,144.236 239.375 L 148.215 227.500 142.084 227.500 C 136.450 227.500,135.814 227.678,134.222 229.702 M172.083 228.259 C 165.278 229.381,165.172 231.189,171.864 232.010 C 175.984 232.515,181.631 231.846,185.417 230.403 C 186.955 229.817,186.939 229.920,185.206 231.738 C 183.074 233.976,166.164 234.826,164.132 232.797 C 161.814 230.482,165.609 227.491,170.721 227.604 C 175.186 227.703,175.253 227.736,172.083 228.259 M444.236 232.153 C 443.698 234.289,443.415 236.192,443.606 236.383 C 443.796 236.574,444.393 234.983,444.931 232.847 C 445.468 230.711,445.752 228.808,445.561 228.617 C 445.370 228.426,444.774 230.017,444.236 232.153 M465.104 234.167 C 465.939 235.313,467.194 237.750,467.894 239.583 C 468.617 241.478,468.717 242.218,468.125 241.299 C 465.318 236.939,463.499 235.833,459.135 235.833 C 454.487 235.833,453.878 234.618,457.566 232.701 C 460.456 231.199,463.350 231.761,465.104 234.167 M408.333 234.654 C 403.521 235.775,393.958 237.827,387.083 239.214 C 380.208 240.601,373.875 242.132,373.009 242.615 C 372.143 243.098,369.330 243.810,366.759 244.198 C 364.187 244.585,357.958 245.894,352.917 247.105 C 347.875 248.317,342.813 249.492,341.667 249.717 C 340.521 249.942,338.833 250.439,337.917 250.822 C 337.000 251.205,334.439 252.208,332.226 253.051 C 330.013 253.894,327.813 255.296,327.338 256.168 C 326.661 257.409,326.720 257.645,327.611 257.259 C 347.654 248.563,420.375 233.185,429.517 235.709 C 431.309 236.203,432.432 236.275,432.012 235.869 C 428.627 232.585,419.279 232.105,408.333 234.654 M171.025 237.212 C 180.557 238.062,176.390 239.086,165.191 238.646 C 152.909 238.164,150.546 237.806,151.326 236.544 C 151.869 235.666,154.787 235.765,171.025 237.212 M220.345 242.119 C 217.187 245.784,216.845 245.946,209.583 247.213 C 200.276 248.836,196.756 250.221,203.526 249.597 C 213.964 248.633,216.814 247.601,220.893 243.306 C 223.671 240.381,225.476 239.200,227.559 238.947 C 230.325 238.611,230.307 238.596,227.011 238.467 C 223.936 238.346,223.290 238.700,220.345 242.119 M420.417 240.790 C 382.422 249.077,326.076 262.093,325.417 262.735 C 324.045 264.072,334.834 262.726,340.833 260.812 C 343.813 259.861,348.313 258.729,350.833 258.296 C 355.187 257.548,364.828 255.336,372.083 253.420 C 373.917 252.936,377.225 252.531,379.435 252.520 C 381.644 252.509,383.949 252.003,384.556 251.396 C 385.163 250.789,390.293 249.409,395.955 248.330 C 401.617 247.251,406.438 246.112,406.667 245.799 C 406.896 245.487,408.958 244.960,411.250 244.629 C 415.821 243.969,430.906 240.206,431.545 239.567 C 432.338 238.773,426.948 239.366,420.417 240.790 M258.875 243.844 C 248.063 249.392,241.836 258.923,233.072 283.333 C 230.521 290.438,226.498 301.617,224.131 308.177 C 221.764 314.737,220.031 320.309,220.281 320.559 C 220.894 321.171,222.394 317.451,228.734 299.599 C 243.282 258.631,247.502 251.209,259.970 244.657 C 265.365 241.822,266.824 240.768,265.208 240.874 C 264.865 240.897,262.015 242.233,258.875 243.844 M438.858 253.876 C 437.115 261.140,435.512 267.646,435.296 268.333 C 435.019 269.215,435.164 269.173,435.789 268.192 C 436.843 266.536,442.667 242.583,442.290 241.453 C 442.146 241.022,440.602 246.612,438.858 253.876 M462.259 243.016 C 462.451 243.598,461.799 243.801,460.523 243.558 C 457.718 243.021,456.090 245.765,455.369 252.244 C 454.647 258.737,455.367 262.258,457.118 260.805 C 459.000 259.243,458.684 261.898,456.491 266.075 C 455.477 268.005,454.604 270.896,454.550 272.500 C 454.233 281.902,454.181 282.172,452.992 280.606 C 451.614 278.789,450.863 280.770,450.845 286.273 C 450.818 294.050,459.038 298.215,459.232 290.523 C 459.269 289.089,459.487 288.385,459.719 288.958 C 460.409 290.670,461.431 290.161,463.265 287.193 C 465.318 283.872,465.487 280.025,463.729 276.625 C 461.130 271.600,459.445 273.913,457.325 285.417 L 456.250 291.250 456.000 286.927 C 455.773 282.998,456.141 279.782,458.273 267.083 C 458.658 264.792,459.384 260.104,459.887 256.667 C 461.223 247.533,462.333 244.197,462.428 249.028 C 462.515 253.391,464.333 253.442,465.062 249.100 L 465.540 246.250 466.206 248.588 C 466.752 250.509,466.427 251.479,464.387 254.017 C 462.609 256.230,461.526 258.958,460.575 263.622 L 459.247 270.135 462.123 273.012 C 463.705 274.594,465.000 276.251,465.000 276.694 C 465.000 278.089,466.533 277.568,466.923 276.042 C 467.128 275.240,467.131 276.445,466.929 278.721 C 466.515 283.388,461.447 293.791,458.742 295.528 C 456.126 297.208,453.272 295.285,450.625 290.059 C 448.529 285.920,447.206 277.761,449.122 280.790 C 449.711 281.721,450.008 281.436,450.424 279.540 C 450.721 278.189,451.302 276.333,451.717 275.417 C 454.213 269.896,454.679 262.797,452.826 258.515 L 451.486 255.417 450.322 258.333 L 449.159 261.250 449.642 257.917 C 451.083 247.980,460.309 237.084,462.259 243.016 M399.618 250.778 C 399.315 251.267,399.262 251.979,399.498 252.362 C 399.953 253.097,398.611 267.792,397.876 270.119 C 397.639 270.872,396.250 271.982,394.790 272.587 L 392.134 273.687 394.192 274.260 C 397.867 275.284,398.671 275.160,397.500 273.750 C 396.653 272.730,396.701 272.500,397.758 272.500 C 399.097 272.500,400.435 269.711,399.681 268.491 C 399.446 268.112,399.640 263.951,400.112 259.246 C 400.933 251.043,400.806 248.855,399.618 250.778 M355.833 260.587 C 338.823 264.474,335.833 265.635,335.833 268.353 C 335.833 270.431,334.949 270.512,349.615 267.095 C 371.045 262.103,374.167 260.875,374.167 257.432 C 374.167 256.392,374.241 256.379,355.833 260.587 M65.903 261.982 C 66.094 262.155,69.250 262.504,72.917 262.756 C 77.928 263.101,78.652 263.038,75.833 262.503 C 71.980 261.771,65.283 261.420,65.903 261.982 M82.292 263.921 C 83.323 264.120,85.010 264.120,86.042 263.921 C 87.073 263.723,86.229 263.560,84.167 263.560 C 82.104 263.560,81.260 263.723,82.292 263.921 M468.220 268.542 C 468.157 271.406,467.938 272.862,467.732 271.777 C 467.404 270.046,467.013 269.861,464.528 270.264 C 460.712 270.883,459.995 269.400,463.768 268.692 C 466.198 268.236,466.837 267.689,467.228 265.733 C 467.991 261.921,468.342 262.918,468.220 268.542 M46.667 272.345 L 46.667 280.704 49.375 281.532 C 57.197 283.923,91.248 289.117,99.375 289.159 C 100.660 289.166,100.833 288.245,100.833 281.409 C 100.833 270.942,100.860 270.968,89.131 269.553 C 83.880 268.920,73.021 267.614,65.000 266.650 C 56.979 265.687,49.573 264.694,48.542 264.443 C 46.691 263.992,46.667 264.097,46.667 272.345 M91.053 264.765 C 92.320 264.956,94.195 264.951,95.220 264.753 C 96.245 264.555,95.208 264.399,92.917 264.405 C 90.625 264.411,89.786 264.573,91.053 264.765 M99.801 265.589 C 100.838 265.789,102.338 265.781,103.135 265.573 C 103.931 265.364,103.083 265.201,101.250 265.210 C 99.417 265.219,98.765 265.390,99.801 265.589 M71.440 268.771 C 80.960 269.915,90.679 271.082,93.036 271.364 C 99.328 272.115,99.406 272.224,99.457 280.304 C 99.514 289.209,101.308 288.545,83.321 286.282 C 50.397 282.139,51.238 282.479,50.485 273.022 L 49.896 265.627 52.013 266.158 C 53.177 266.450,61.919 267.626,71.440 268.771 M110.606 266.435 C 112.086 266.619,114.711 266.622,116.440 266.441 C 118.169 266.261,116.958 266.110,113.750 266.107 C 110.542 266.103,109.127 266.251,110.606 266.435 M123.333 266.706 C 121.729 266.957,128.223 267.462,137.765 267.830 C 147.307 268.197,155.301 268.310,155.530 268.081 C 156.427 267.184,128.032 265.972,123.333 266.706 M197.917 267.123 L 193.750 268.253 200.833 267.799 C 211.776 267.098,216.256 266.029,208.333 266.009 C 204.896 266.000,200.208 266.502,197.917 267.123 M409.739 267.887 C 406.158 268.954,402.970 270.104,402.656 270.441 C 401.472 271.711,409.792 270.114,415.000 268.073 C 421.947 265.350,418.644 265.233,409.739 267.887 M64.901 274.792 L 64.802 279.583 63.731 275.417 L 62.660 271.250 62.580 275.149 C 62.498 279.146,63.940 281.667,66.310 281.667 C 67.603 281.667,67.923 277.326,66.979 272.604 C 66.141 268.412,65.008 269.604,64.901 274.792 M205.000 270.605 C 196.313 271.168,154.490 276.585,152.247 277.438 C 147.770 279.140,150.052 286.120,157.851 294.583 C 160.354 297.299,159.988 296.493,155.878 290.240 C 150.623 282.244,150.043 280.833,152.014 280.833 C 152.663 280.833,153.330 280.425,153.497 279.927 C 153.973 278.496,190.937 273.421,211.513 271.960 C 215.693 271.664,218.916 271.101,218.674 270.710 C 218.248 270.021,214.466 269.992,205.000 270.605 M77.788 273.125 C 79.204 278.287,79.266 281.050,77.956 280.547 C 76.858 280.126,76.781 280.322,77.510 281.685 C 78.553 283.635,78.712 283.668,80.149 282.233 C 82.023 280.362,81.105 271.667,79.033 271.667 C 77.869 271.667,77.505 272.093,77.788 273.125 M83.642 277.563 C 84.290 284.536,84.277 284.509,86.652 283.755 C 91.687 282.157,90.557 273.771,85.080 272.088 L 83.076 271.473 83.642 277.563 M292.128 277.899 C 309.520 288.091,308.961 330.958,291.178 350.737 C 267.665 376.890,245.447 331.986,263.360 294.513 C 271.127 278.265,282.019 271.975,292.128 277.899 M367.500 279.309 C 364.031 280.727,359.167 282.014,356.568 282.200 C 348.935 282.747,339.747 286.211,342.763 287.405 C 344.053 287.915,346.115 288.282,347.346 288.220 C 349.310 288.120,349.354 288.062,347.708 287.745 C 341.641 286.577,352.754 284.204,364.744 284.108 C 368.781 284.076,372.833 283.695,373.750 283.262 C 375.037 282.654,374.656 282.540,372.083 282.765 C 370.250 282.925,367.813 282.781,366.667 282.445 C 364.954 281.942,365.213 281.818,368.125 281.750 C 370.073 281.704,371.667 281.302,371.667 280.857 C 371.667 280.412,372.860 279.738,374.318 279.361 C 377.510 278.534,378.489 276.648,375.694 276.710 C 374.625 276.734,370.938 277.903,367.500 279.309 M207.284 278.691 C 202.851 280.273,201.667 281.496,201.667 284.492 C 201.667 291.602,195.492 295.480,184.510 295.267 C 174.232 295.068,171.759 294.100,164.613 287.474 C 158.621 281.918,157.500 281.078,157.500 282.145 C 157.500 283.227,167.111 292.600,169.383 293.733 C 179.280 298.670,201.979 297.639,201.032 292.295 C 200.911 291.617,201.378 289.980,202.068 288.657 C 202.758 287.333,203.325 285.452,203.328 284.477 C 203.335 282.089,204.878 280.961,210.594 279.166 C 214.412 277.967,214.896 277.644,212.917 277.613 C 211.542 277.591,209.007 278.076,207.284 278.691 M277.043 280.240 C 273.980 282.875,273.160 295.207,275.716 300.199 C 277.363 303.417,276.803 303.501,273.505 300.529 C 271.684 298.889,271.618 298.426,272.122 290.862 L 272.652 282.917 270.545 285.417 C 269.386 286.792,267.801 289.309,267.023 291.010 L 265.609 294.104 269.889 298.787 C 272.243 301.363,274.333 304.283,274.532 305.277 C 274.732 306.270,275.138 308.208,275.434 309.583 L 275.972 312.083 277.283 309.167 C 278.004 307.563,278.535 305.969,278.463 305.625 C 278.392 305.281,278.896 305.000,279.583 305.000 C 282.738 305.000,281.095 311.900,276.995 315.868 C 270.422 322.231,264.395 331.184,268.316 328.761 C 268.826 328.446,270.780 326.252,272.660 323.886 L 276.077 319.583 275.490 322.763 C 274.946 325.716,275.018 325.882,276.501 325.089 C 279.033 323.734,280.316 343.866,278.226 352.163 C 276.542 358.853,282.264 357.761,289.426 350.026 C 298.111 340.644,299.994 333.974,295.588 328.197 C 286.902 316.809,279.149 329.257,284.907 345.345 C 285.877 348.056,286.476 350.468,286.238 350.706 C 283.760 353.185,278.437 326.253,280.701 322.686 C 283.234 318.695,293.037 321.031,297.523 326.696 C 300.874 330.927,301.240 330.554,302.857 321.250 C 304.433 312.190,304.443 311.891,303.125 313.208 C 302.552 313.781,302.083 314.663,302.083 315.168 C 302.083 318.615,290.867 319.996,286.913 317.036 C 285.547 316.014,285.599 315.955,287.500 316.362 L 289.583 316.809 287.813 315.279 C 286.839 314.438,285.800 312.719,285.505 311.458 C 285.210 310.198,284.627 309.167,284.209 309.167 C 283.792 309.167,284.361 306.924,285.475 304.183 C 288.062 297.818,288.026 296.145,285.395 300.417 C 282.931 304.417,282.738 303.238,284.943 297.646 C 286.487 293.727,289.167 282.292,289.167 279.618 C 289.167 277.377,279.814 277.856,277.043 280.240 M290.705 284.461 C 290.334 292.875,290.721 293.389,294.922 290.062 C 299.129 286.730,299.134 286.875,294.664 281.956 L 290.994 277.917 290.705 284.461 M182.083 279.590 C 181.625 279.750,176.851 280.132,171.474 280.439 L 161.698 280.996 164.223 284.665 C 165.611 286.682,166.942 288.333,167.180 288.333 C 167.418 288.333,166.797 287.187,165.799 285.785 C 163.289 282.261,164.337 281.794,168.310 284.668 C 173.733 288.590,176.887 289.997,180.256 289.999 C 184.041 290.000,191.049 291.635,191.742 292.678 C 193.518 295.351,200.000 287.699,200.000 282.929 C 200.000 279.819,187.884 277.560,182.083 279.590 M45.417 288.674 C 61.008 291.714,72.772 293.592,103.173 297.893 C 137.621 302.768,137.564 302.741,146.624 318.226 C 150.236 324.401,149.393 324.339,144.808 318.094 C 134.484 304.033,132.216 302.984,103.860 299.139 C 93.378 297.717,81.566 296.024,77.610 295.375 C 73.653 294.726,68.275 294.189,65.657 294.181 C 60.787 294.166,49.954 291.948,43.437 289.630 C 39.641 288.280,32.869 287.874,32.231 288.958 C 31.229 290.659,30.710 295.174,31.578 294.638 C 32.085 294.325,32.500 293.431,32.500 292.651 C 32.500 291.872,33.204 290.794,34.065 290.257 C 35.544 289.334,35.586 289.473,34.834 292.764 C 31.257 308.404,38.308 314.272,65.000 317.872 C 66.604 318.088,69.229 318.668,70.833 319.162 C 73.141 319.871,91.661 323.313,105.000 325.511 C 106.146 325.700,113.083 327.170,120.417 328.777 C 129.124 330.685,137.162 331.881,143.583 332.224 C 156.232 332.899,157.048 336.543,145.151 339.227 C 141.527 340.044,118.062 336.494,111.667 334.161 C 106.380 332.232,76.033 325.845,58.333 322.936 C 33.700 318.888,29.640 315.582,29.654 299.583 C 29.662 289.533,30.718 285.447,33.126 286.142 C 33.927 286.373,39.458 287.512,45.417 288.674 M68.594 289.705 C 68.890 290.001,70.171 290.361,71.441 290.504 C 76.376 291.061,91.993 294.016,90.417 294.094 C 87.810 294.224,63.112 290.725,61.250 289.962 C 60.054 289.472,60.779 289.264,63.819 289.223 C 66.149 289.192,68.298 289.409,68.594 289.705 M295.425 293.374 C 284.145 303.983,285.325 320.860,296.930 314.898 C 303.325 311.612,304.719 308.002,303.006 299.154 C 300.832 287.928,301.044 288.089,295.425 293.374 M183.333 292.462 C 184.021 292.927,185.302 293.314,186.181 293.321 C 188.313 293.338,187.647 292.861,184.583 292.175 C 182.758 291.767,182.420 291.844,183.333 292.462 M105.417 295.000 C 106.017 295.971,102.335 295.986,96.250 295.038 C 92.198 294.407,92.260 294.386,98.492 294.278 C 102.018 294.217,105.133 294.542,105.417 295.000 M262.175 300.000 C 260.577 305.264,258.333 317.452,258.333 320.864 C 258.333 324.618,266.112 325.429,268.990 321.976 C 275.501 314.166,275.450 308.589,268.808 302.104 C 266.388 299.742,264.219 297.271,263.987 296.613 C 263.755 295.955,262.940 297.479,262.175 300.000 M53.378 306.739 C 53.805 307.429,55.372 307.570,58.456 307.196 C 61.791 306.791,62.545 306.878,61.446 307.542 C 57.715 309.795,43.333 308.265,43.333 305.616 C 43.333 304.432,52.592 305.467,53.378 306.739 M45.833 310.718 C 45.833 311.112,48.852 311.306,52.541 311.147 C 57.093 310.951,59.075 311.141,58.707 311.736 C 58.409 312.219,57.546 312.400,56.791 312.138 C 55.777 311.787,55.841 311.991,57.034 312.915 C 58.588 314.118,58.562 314.167,56.372 314.167 C 52.845 314.167,43.301 311.559,43.811 310.735 C 44.394 309.791,45.833 309.779,45.833 310.718 M39.480 315.666 C 40.436 317.213,47.826 319.206,55.611 320.017 C 67.018 321.205,111.692 330.804,113.760 332.512 C 116.980 335.171,143.161 337.475,147.836 335.511 C 152.008 333.759,151.146 332.847,146.437 334.033 C 142.702 334.973,136.626 334.480,135.760 333.166 C 135.269 332.421,129.377 331.762,122.659 331.700 C 120.684 331.682,119.272 331.338,119.520 330.935 C 119.769 330.533,118.010 329.984,115.611 329.715 C 113.213 329.446,109.563 328.872,107.500 328.439 C 105.438 328.007,99.599 326.901,94.525 325.983 C 77.617 322.921,57.922 318.887,57.500 318.399 C 57.271 318.134,55.090 317.899,52.654 317.878 C 50.218 317.857,47.968 317.482,47.654 317.045 C 47.340 316.608,46.146 316.228,45.000 316.200 C 43.854 316.173,42.026 315.851,40.937 315.486 C 39.657 315.056,39.142 315.120,39.480 315.666 M129.001 320.008 C 136.008 320.918,139.774 322.764,136.649 323.756 C 133.366 324.798,125.957 323.364,123.514 321.213 C 120.928 318.936,120.860 318.951,129.001 320.008 M170.417 321.676 C 173.631 322.378,189.805 322.822,189.097 322.190 C 188.906 322.019,183.875 321.670,177.917 321.414 C 170.850 321.110,168.242 321.202,170.417 321.676 M132.181 328.016 C 147.204 330.547,147.485 330.609,144.417 330.729 C 140.679 330.875,123.925 327.567,122.917 326.484 C 122.353 325.878,122.384 325.757,123.014 326.108 C 123.526 326.394,127.651 327.253,132.181 328.016 M270.467 329.375 C 260.987 338.884,263.562 355.833,274.488 355.833 C 275.976 355.833,278.560 334.530,277.514 330.882 C 276.103 325.963,274.261 325.569,270.467 329.375 M258.678 332.449 C 259.897 343.220,261.360 343.891,263.765 334.780 C 265.455 328.379,265.478 328.441,261.231 327.752 L 258.089 327.242 258.678 332.449 " stroke="none" fill="#000000" fill-rule="evenodd"></path></g></svg>